<svg width="1237" height="950" viewBox="0 0 1237 950" fill="none" xmlns="http://www.w3.org/2000/svg">
<g clip-path="url(#clip0_1357_16044)">
<line x1="-13.2186" y1="23.8966" x2="113.732" y2="-103.054" stroke="#E7E7E7" stroke-width="0.997417"/>
<line x1="-13.2186" y1="36.1442" x2="113.732" y2="-90.8063" stroke="#E7E7E7" stroke-width="0.997417"/>
<line x1="-13.2186" y1="48.3917" x2="113.732" y2="-78.5588" stroke="#E7E7E7" stroke-width="0.997417"/>
<line x1="-13.2186" y1="60.6391" x2="113.732" y2="-66.3115" stroke="#E7E7E7" stroke-width="0.997417"/>
<line x1="-13.2186" y1="72.8866" x2="113.732" y2="-54.0639" stroke="#E7E7E7" stroke-width="0.997417"/>
<line x1="-13.2186" y1="85.1342" x2="113.732" y2="-41.8163" stroke="#E7E7E7" stroke-width="0.997417"/>
<line x1="-13.2186" y1="97.3817" x2="113.732" y2="-29.5688" stroke="#E7E7E7" stroke-width="0.997417"/>
<line x1="-13.2186" y1="109.629" x2="113.732" y2="-17.3212" stroke="#E7E7E7" stroke-width="0.997417"/>
<line x1="-13.2186" y1="121.877" x2="113.732" y2="-5.07391" stroke="#E7E7E7" stroke-width="0.997417"/>
<line x1="-13.2186" y1="134.124" x2="113.732" y2="7.17365" stroke="#E7E7E7" stroke-width="0.997417"/>
<line x1="-13.2186" y1="146.371" x2="113.732" y2="19.421" stroke="#E7E7E7" stroke-width="0.997417"/>
<line x1="-13.2186" y1="158.619" x2="113.732" y2="31.6688" stroke="#E7E7E7" stroke-width="0.997417"/>
<line x1="-13.2186" y1="170.867" x2="113.732" y2="43.9161" stroke="#E7E7E7" stroke-width="0.997417"/>
<line x1="-13.2186" y1="183.114" x2="113.732" y2="56.1636" stroke="#E7E7E7" stroke-width="0.997417"/>
<line x1="-13.2186" y1="195.361" x2="113.732" y2="68.411" stroke="#E7E7E7" stroke-width="0.997417"/>
<line x1="-13.2186" y1="207.609" x2="113.732" y2="80.6585" stroke="#E7E7E7" stroke-width="0.997417"/>
<line x1="-13.2186" y1="219.857" x2="113.732" y2="92.9061" stroke="#E7E7E7" stroke-width="0.997417"/>
<line x1="-13.2186" y1="232.104" x2="113.732" y2="105.154" stroke="#E7E7E7" stroke-width="0.997417"/>
<line x1="-13.2186" y1="244.352" x2="113.732" y2="117.401" stroke="#E7E7E7" stroke-width="0.997417"/>
<line x1="-13.2186" y1="256.599" x2="113.732" y2="129.649" stroke="#E7E7E7" stroke-width="0.997417"/>
<line x1="-13.2186" y1="268.847" x2="113.732" y2="141.896" stroke="#E7E7E7" stroke-width="0.997417"/>
<line x1="-13.2186" y1="281.094" x2="113.732" y2="154.144" stroke="#E7E7E7" stroke-width="0.997417"/>
<line x1="-13.2186" y1="293.342" x2="113.732" y2="166.391" stroke="#E7E7E7" stroke-width="0.997417"/>
<line x1="-13.2186" y1="305.589" x2="113.732" y2="178.639" stroke="#E7E7E7" stroke-width="0.997417"/>
<line x1="-13.2186" y1="317.837" x2="113.732" y2="190.886" stroke="#E7E7E7" stroke-width="0.997417"/>
<line x1="-13.2186" y1="330.084" x2="113.732" y2="203.134" stroke="#E7E7E7" stroke-width="0.997417"/>
<line x1="-13.2186" y1="342.332" x2="113.732" y2="215.381" stroke="#E7E7E7" stroke-width="0.997417"/>
<line x1="-13.2186" y1="354.579" x2="113.732" y2="227.629" stroke="#E7E7E7" stroke-width="0.997417"/>
<line x1="-13.2186" y1="366.827" x2="113.732" y2="239.876" stroke="#E7E7E7" stroke-width="0.997417"/>
<line x1="-13.2186" y1="379.074" x2="113.732" y2="252.124" stroke="#E7E7E7" stroke-width="0.997417"/>
<line x1="-13.2186" y1="391.322" x2="113.732" y2="264.371" stroke="#E7E7E7" stroke-width="0.997417"/>
<line x1="-13.2186" y1="403.569" x2="113.732" y2="276.619" stroke="#E7E7E7" stroke-width="0.997417"/>
<line x1="-13.2186" y1="415.817" x2="113.732" y2="288.866" stroke="#E7E7E7" stroke-width="0.997417"/>
<line x1="-13.2186" y1="428.064" x2="113.732" y2="301.114" stroke="#E7E7E7" stroke-width="0.997417"/>
<line x1="-13.2186" y1="440.312" x2="113.732" y2="313.361" stroke="#E7E7E7" stroke-width="0.997417"/>
<line x1="-13.2186" y1="452.559" x2="113.732" y2="325.609" stroke="#E7E7E7" stroke-width="0.997417"/>
<line x1="-13.2186" y1="464.807" x2="113.732" y2="337.856" stroke="#E7E7E7" stroke-width="0.997417"/>
<line x1="-13.2186" y1="477.054" x2="113.732" y2="350.104" stroke="#E7E7E7" stroke-width="0.997417"/>
<line x1="-13.2186" y1="489.302" x2="113.732" y2="362.351" stroke="#E7E7E7" stroke-width="0.997417"/>
<line x1="-13.2186" y1="501.549" x2="113.732" y2="374.599" stroke="#E7E7E7" stroke-width="0.997417"/>
<line x1="-13.2186" y1="513.797" x2="113.732" y2="386.846" stroke="#E7E7E7" stroke-width="0.997417"/>
<line x1="-13.2186" y1="526.044" x2="113.732" y2="399.094" stroke="#E7E7E7" stroke-width="0.997417"/>
<line x1="-13.2186" y1="538.292" x2="113.732" y2="411.341" stroke="#E7E7E7" stroke-width="0.997417"/>
<line x1="-13.2186" y1="550.539" x2="113.732" y2="423.589" stroke="#E7E7E7" stroke-width="0.997417"/>
<line x1="-13.2186" y1="562.787" x2="113.732" y2="435.836" stroke="#E7E7E7" stroke-width="0.997417"/>
<line x1="-13.2186" y1="575.034" x2="113.732" y2="448.084" stroke="#E7E7E7" stroke-width="0.997417"/>
<line x1="-13.2186" y1="587.282" x2="113.732" y2="460.331" stroke="#E7E7E7" stroke-width="0.997417"/>
<line x1="-13.2186" y1="599.529" x2="113.732" y2="472.579" stroke="#E7E7E7" stroke-width="0.997417"/>
<line x1="-13.2186" y1="611.777" x2="113.732" y2="484.826" stroke="#E7E7E7" stroke-width="0.997417"/>
<line x1="-13.2186" y1="624.024" x2="113.732" y2="497.074" stroke="#E7E7E7" stroke-width="0.997417"/>
<line x1="-13.2186" y1="636.272" x2="113.732" y2="509.321" stroke="#E7E7E7" stroke-width="0.997417"/>
<line x1="-13.2186" y1="648.519" x2="113.732" y2="521.569" stroke="#E7E7E7" stroke-width="0.997417"/>
<line x1="-13.2186" y1="660.767" x2="113.732" y2="533.816" stroke="#E7E7E7" stroke-width="0.997417"/>
<line x1="-13.2186" y1="673.014" x2="113.732" y2="546.064" stroke="#E7E7E7" stroke-width="0.997417"/>
<line x1="-13.2186" y1="685.262" x2="113.732" y2="558.311" stroke="#E7E7E7" stroke-width="0.997417"/>
<line x1="-13.2186" y1="697.509" x2="113.732" y2="570.559" stroke="#E7E7E7" stroke-width="0.997417"/>
<line x1="-13.2186" y1="709.757" x2="113.732" y2="582.806" stroke="#E7E7E7" stroke-width="0.997417"/>
<line x1="-13.2186" y1="722.004" x2="113.732" y2="595.054" stroke="#E7E7E7" stroke-width="0.997417"/>
<line x1="-13.2186" y1="734.252" x2="113.732" y2="607.301" stroke="#E7E7E7" stroke-width="0.997417"/>
<line x1="-13.2186" y1="746.499" x2="113.732" y2="619.549" stroke="#E7E7E7" stroke-width="0.997417"/>
<line x1="-13.2186" y1="758.746" x2="113.732" y2="631.796" stroke="#E7E7E7" stroke-width="0.997417"/>
<line x1="-13.2186" y1="770.994" x2="113.732" y2="644.044" stroke="#E7E7E7" stroke-width="0.997417"/>
<line x1="-13.2186" y1="783.242" x2="113.732" y2="656.291" stroke="#E7E7E7" stroke-width="0.997417"/>
<line x1="-13.2186" y1="795.489" x2="113.732" y2="668.538" stroke="#E7E7E7" stroke-width="0.997417"/>
<line x1="-13.2186" y1="807.736" x2="113.732" y2="680.786" stroke="#E7E7E7" stroke-width="0.997417"/>
<line x1="-13.2186" y1="819.984" x2="113.732" y2="693.034" stroke="#E7E7E7" stroke-width="0.997417"/>
<line x1="-13.2186" y1="832.232" x2="113.732" y2="705.281" stroke="#E7E7E7" stroke-width="0.997417"/>
<line x1="-13.2186" y1="844.479" x2="113.732" y2="717.529" stroke="#E7E7E7" stroke-width="0.997417"/>
<line x1="-13.2186" y1="856.726" x2="113.732" y2="729.776" stroke="#E7E7E7" stroke-width="0.997417"/>
<line x1="-13.2186" y1="868.974" x2="113.732" y2="742.023" stroke="#E7E7E7" stroke-width="0.997417"/>
<line x1="-13.2186" y1="881.222" x2="113.732" y2="754.271" stroke="#E7E7E7" stroke-width="0.997417"/>
<line x1="-13.2186" y1="893.469" x2="113.732" y2="766.519" stroke="#E7E7E7" stroke-width="0.997417"/>
<line x1="-13.2186" y1="905.717" x2="113.732" y2="778.766" stroke="#E7E7E7" stroke-width="0.997417"/>
<line x1="-13.2186" y1="917.964" x2="113.732" y2="791.014" stroke="#E7E7E7" stroke-width="0.997417"/>
<line x1="-13.2186" y1="930.211" x2="113.732" y2="803.261" stroke="#E7E7E7" stroke-width="0.997417"/>
<line x1="-13.2186" y1="942.459" x2="113.732" y2="815.508" stroke="#E7E7E7" stroke-width="0.997417"/>
<line x1="-13.2186" y1="954.707" x2="113.732" y2="827.756" stroke="#E7E7E7" stroke-width="0.997417"/>
<line x1="-13.2186" y1="966.954" x2="113.732" y2="840.003" stroke="#E7E7E7" stroke-width="0.997417"/>
<line x1="-13.2186" y1="979.202" x2="113.732" y2="852.251" stroke="#E7E7E7" stroke-width="0.997417"/>
<line x1="-13.2186" y1="991.449" x2="113.732" y2="864.499" stroke="#E7E7E7" stroke-width="0.997417"/>
<line x1="-13.2186" y1="1003.7" x2="113.732" y2="876.746" stroke="#E7E7E7" stroke-width="0.997417"/>
<line x1="-13.2186" y1="1015.94" x2="113.732" y2="888.993" stroke="#E7E7E7" stroke-width="0.997417"/>
<line x1="-13.2186" y1="1028.19" x2="113.732" y2="901.241" stroke="#E7E7E7" stroke-width="0.997417"/>
<line x1="-13.2186" y1="1040.44" x2="113.732" y2="913.488" stroke="#E7E7E7" stroke-width="0.997417"/>
<line x1="-13.2186" y1="1052.69" x2="113.732" y2="925.736" stroke="#E7E7E7" stroke-width="0.997417"/>
<line x1="-13.2186" y1="1064.93" x2="113.732" y2="937.983" stroke="#E7E7E7" stroke-width="0.997417"/>
</g>
<rect x="0.501291" y="0.501291" width="100.997" height="948.997" stroke="#E7E7E7" stroke-width="0.997417"/>
<g clip-path="url(#clip1_1357_16044)">
<line x1="1122.84" y1="23.8966" x2="1249.79" y2="-103.054" stroke="#E7E7E7" stroke-width="0.997417"/>
<line x1="1122.84" y1="36.1442" x2="1249.79" y2="-90.8063" stroke="#E7E7E7" stroke-width="0.997417"/>
<line x1="1122.84" y1="48.3917" x2="1249.79" y2="-78.5588" stroke="#E7E7E7" stroke-width="0.997417"/>
<line x1="1122.84" y1="60.6391" x2="1249.79" y2="-66.3115" stroke="#E7E7E7" stroke-width="0.997417"/>
<line x1="1122.84" y1="72.8866" x2="1249.79" y2="-54.0639" stroke="#E7E7E7" stroke-width="0.997417"/>
<line x1="1122.84" y1="85.1342" x2="1249.79" y2="-41.8163" stroke="#E7E7E7" stroke-width="0.997417"/>
<line x1="1122.84" y1="97.3817" x2="1249.79" y2="-29.5688" stroke="#E7E7E7" stroke-width="0.997417"/>
<line x1="1122.84" y1="109.629" x2="1249.79" y2="-17.3212" stroke="#E7E7E7" stroke-width="0.997417"/>
<line x1="1122.84" y1="121.877" x2="1249.79" y2="-5.07391" stroke="#E7E7E7" stroke-width="0.997417"/>
<line x1="1122.84" y1="134.124" x2="1249.79" y2="7.17365" stroke="#E7E7E7" stroke-width="0.997417"/>
<line x1="1122.84" y1="146.371" x2="1249.79" y2="19.421" stroke="#E7E7E7" stroke-width="0.997417"/>
<line x1="1122.84" y1="158.619" x2="1249.79" y2="31.6685" stroke="#E7E7E7" stroke-width="0.997417"/>
<line x1="1122.84" y1="170.867" x2="1249.79" y2="43.9161" stroke="#E7E7E7" stroke-width="0.997417"/>
<line x1="1122.84" y1="183.114" x2="1249.79" y2="56.1636" stroke="#E7E7E7" stroke-width="0.997417"/>
<line x1="1122.84" y1="195.361" x2="1249.79" y2="68.411" stroke="#E7E7E7" stroke-width="0.997417"/>
<line x1="1122.84" y1="207.609" x2="1249.79" y2="80.6585" stroke="#E7E7E7" stroke-width="0.997417"/>
<line x1="1122.84" y1="219.857" x2="1249.79" y2="92.9063" stroke="#E7E7E7" stroke-width="0.997417"/>
<line x1="1122.84" y1="232.104" x2="1249.79" y2="105.154" stroke="#E7E7E7" stroke-width="0.997417"/>
<line x1="1122.84" y1="244.352" x2="1249.79" y2="117.401" stroke="#E7E7E7" stroke-width="0.997417"/>
<line x1="1122.84" y1="256.599" x2="1249.79" y2="129.649" stroke="#E7E7E7" stroke-width="0.997417"/>
<line x1="1122.84" y1="268.847" x2="1249.79" y2="141.896" stroke="#E7E7E7" stroke-width="0.997417"/>
<line x1="1122.84" y1="281.094" x2="1249.79" y2="154.144" stroke="#E7E7E7" stroke-width="0.997417"/>
<line x1="1122.84" y1="293.342" x2="1249.79" y2="166.391" stroke="#E7E7E7" stroke-width="0.997417"/>
<line x1="1122.84" y1="305.589" x2="1249.79" y2="178.639" stroke="#E7E7E7" stroke-width="0.997417"/>
<line x1="1122.84" y1="317.837" x2="1249.79" y2="190.886" stroke="#E7E7E7" stroke-width="0.997417"/>
<line x1="1122.84" y1="330.084" x2="1249.79" y2="203.134" stroke="#E7E7E7" stroke-width="0.997417"/>
<line x1="1122.84" y1="342.332" x2="1249.79" y2="215.381" stroke="#E7E7E7" stroke-width="0.997417"/>
<line x1="1122.84" y1="354.579" x2="1249.79" y2="227.629" stroke="#E7E7E7" stroke-width="0.997417"/>
<line x1="1122.84" y1="366.827" x2="1249.79" y2="239.876" stroke="#E7E7E7" stroke-width="0.997417"/>
<line x1="1122.84" y1="379.074" x2="1249.79" y2="252.124" stroke="#E7E7E7" stroke-width="0.997417"/>
<line x1="1122.84" y1="391.322" x2="1249.79" y2="264.371" stroke="#E7E7E7" stroke-width="0.997417"/>
<line x1="1122.84" y1="403.569" x2="1249.79" y2="276.619" stroke="#E7E7E7" stroke-width="0.997417"/>
<line x1="1122.84" y1="415.817" x2="1249.79" y2="288.866" stroke="#E7E7E7" stroke-width="0.997417"/>
<line x1="1122.84" y1="428.064" x2="1249.79" y2="301.114" stroke="#E7E7E7" stroke-width="0.997417"/>
<line x1="1122.84" y1="440.312" x2="1249.79" y2="313.361" stroke="#E7E7E7" stroke-width="0.997417"/>
<line x1="1122.84" y1="452.559" x2="1249.79" y2="325.609" stroke="#E7E7E7" stroke-width="0.997417"/>
<line x1="1122.84" y1="464.807" x2="1249.79" y2="337.856" stroke="#E7E7E7" stroke-width="0.997417"/>
<line x1="1122.84" y1="477.054" x2="1249.79" y2="350.104" stroke="#E7E7E7" stroke-width="0.997417"/>
<line x1="1122.84" y1="489.302" x2="1249.79" y2="362.351" stroke="#E7E7E7" stroke-width="0.997417"/>
<line x1="1122.84" y1="501.549" x2="1249.79" y2="374.599" stroke="#E7E7E7" stroke-width="0.997417"/>
<line x1="1122.84" y1="513.797" x2="1249.79" y2="386.846" stroke="#E7E7E7" stroke-width="0.997417"/>
<line x1="1122.84" y1="526.044" x2="1249.79" y2="399.094" stroke="#E7E7E7" stroke-width="0.997417"/>
<line x1="1122.84" y1="538.292" x2="1249.79" y2="411.341" stroke="#E7E7E7" stroke-width="0.997417"/>
<line x1="1122.84" y1="550.539" x2="1249.79" y2="423.589" stroke="#E7E7E7" stroke-width="0.997417"/>
<line x1="1122.84" y1="562.787" x2="1249.79" y2="435.836" stroke="#E7E7E7" stroke-width="0.997417"/>
<line x1="1122.84" y1="575.034" x2="1249.79" y2="448.084" stroke="#E7E7E7" stroke-width="0.997417"/>
<line x1="1122.84" y1="587.282" x2="1249.79" y2="460.331" stroke="#E7E7E7" stroke-width="0.997417"/>
<line x1="1122.84" y1="599.529" x2="1249.79" y2="472.579" stroke="#E7E7E7" stroke-width="0.997417"/>
<line x1="1122.84" y1="611.777" x2="1249.79" y2="484.826" stroke="#E7E7E7" stroke-width="0.997417"/>
<line x1="1122.84" y1="624.024" x2="1249.79" y2="497.074" stroke="#E7E7E7" stroke-width="0.997417"/>
<line x1="1122.84" y1="636.272" x2="1249.79" y2="509.321" stroke="#E7E7E7" stroke-width="0.997417"/>
<line x1="1122.84" y1="648.519" x2="1249.79" y2="521.569" stroke="#E7E7E7" stroke-width="0.997417"/>
<line x1="1122.84" y1="660.767" x2="1249.79" y2="533.816" stroke="#E7E7E7" stroke-width="0.997417"/>
<line x1="1122.84" y1="673.014" x2="1249.79" y2="546.064" stroke="#E7E7E7" stroke-width="0.997417"/>
<line x1="1122.84" y1="685.262" x2="1249.79" y2="558.311" stroke="#E7E7E7" stroke-width="0.997417"/>
<line x1="1122.84" y1="697.509" x2="1249.79" y2="570.559" stroke="#E7E7E7" stroke-width="0.997417"/>
<line x1="1122.84" y1="709.757" x2="1249.79" y2="582.806" stroke="#E7E7E7" stroke-width="0.997417"/>
<line x1="1122.84" y1="722.004" x2="1249.79" y2="595.054" stroke="#E7E7E7" stroke-width="0.997417"/>
<line x1="1122.84" y1="734.252" x2="1249.79" y2="607.301" stroke="#E7E7E7" stroke-width="0.997417"/>
<line x1="1122.84" y1="746.499" x2="1249.79" y2="619.549" stroke="#E7E7E7" stroke-width="0.997417"/>
<line x1="1122.84" y1="758.746" x2="1249.79" y2="631.796" stroke="#E7E7E7" stroke-width="0.997417"/>
<line x1="1122.84" y1="770.994" x2="1249.79" y2="644.044" stroke="#E7E7E7" stroke-width="0.997417"/>
<line x1="1122.84" y1="783.242" x2="1249.79" y2="656.291" stroke="#E7E7E7" stroke-width="0.997417"/>
<line x1="1122.84" y1="795.489" x2="1249.79" y2="668.538" stroke="#E7E7E7" stroke-width="0.997417"/>
<line x1="1122.84" y1="807.736" x2="1249.79" y2="680.786" stroke="#E7E7E7" stroke-width="0.997417"/>
<line x1="1122.84" y1="819.984" x2="1249.79" y2="693.034" stroke="#E7E7E7" stroke-width="0.997417"/>
<line x1="1122.84" y1="832.232" x2="1249.79" y2="705.281" stroke="#E7E7E7" stroke-width="0.997417"/>
<line x1="1122.84" y1="844.479" x2="1249.79" y2="717.529" stroke="#E7E7E7" stroke-width="0.997417"/>
<line x1="1122.84" y1="856.727" x2="1249.79" y2="729.776" stroke="#E7E7E7" stroke-width="0.997417"/>
<line x1="1122.84" y1="868.974" x2="1249.79" y2="742.023" stroke="#E7E7E7" stroke-width="0.997417"/>
<line x1="1122.84" y1="881.222" x2="1249.79" y2="754.271" stroke="#E7E7E7" stroke-width="0.997417"/>
<line x1="1122.84" y1="893.469" x2="1249.79" y2="766.519" stroke="#E7E7E7" stroke-width="0.997417"/>
<line x1="1122.84" y1="905.717" x2="1249.79" y2="778.766" stroke="#E7E7E7" stroke-width="0.997417"/>
<line x1="1122.84" y1="917.964" x2="1249.79" y2="791.014" stroke="#E7E7E7" stroke-width="0.997417"/>
<line x1="1122.84" y1="930.211" x2="1249.79" y2="803.261" stroke="#E7E7E7" stroke-width="0.997417"/>
<line x1="1122.84" y1="942.459" x2="1249.79" y2="815.508" stroke="#E7E7E7" stroke-width="0.997417"/>
<line x1="1122.84" y1="954.707" x2="1249.79" y2="827.756" stroke="#E7E7E7" stroke-width="0.997417"/>
<line x1="1122.84" y1="966.954" x2="1249.79" y2="840.003" stroke="#E7E7E7" stroke-width="0.997417"/>
<line x1="1122.84" y1="979.202" x2="1249.79" y2="852.251" stroke="#E7E7E7" stroke-width="0.997417"/>
<line x1="1122.84" y1="991.449" x2="1249.79" y2="864.499" stroke="#E7E7E7" stroke-width="0.997417"/>
<line x1="1122.84" y1="1003.7" x2="1249.79" y2="876.746" stroke="#E7E7E7" stroke-width="0.997417"/>
<line x1="1122.84" y1="1015.94" x2="1249.79" y2="888.994" stroke="#E7E7E7" stroke-width="0.997417"/>
<line x1="1122.84" y1="1028.19" x2="1249.79" y2="901.241" stroke="#E7E7E7" stroke-width="0.997417"/>
<line x1="1122.84" y1="1040.44" x2="1249.79" y2="913.489" stroke="#E7E7E7" stroke-width="0.997417"/>
<line x1="1122.84" y1="1052.69" x2="1249.79" y2="925.736" stroke="#E7E7E7" stroke-width="0.997417"/>
<line x1="1122.84" y1="1064.93" x2="1249.79" y2="937.983" stroke="#E7E7E7" stroke-width="0.997417"/>
</g>
<rect x="1136.5" y="0.501291" width="99.9974" height="948.997" stroke="#E7E7E7" stroke-width="0.997417"/>
<line x1="618.639" y1="40.9316" x2="618.639" y2="553.02" stroke="#E4E4E4" stroke-width="0.997417" stroke-dasharray="7.98 7.98"/>
<line x1="829.828" y1="132.744" x2="406.453" y2="132.744" stroke="#E4E4E4" stroke-width="0.997417" stroke-dasharray="7.98 7.98"/>
<line x1="618.638" y1="123.262" x2="618.638" y2="141.215" stroke="#B5B5B5" stroke-width="0.997417"/>
<line x1="627.117" y1="132.743" x2="609.164" y2="132.743" stroke="#B5B5B5" stroke-width="0.997417"/>
<line x1="968.972" y1="220.713" x2="267.307" y2="220.713" stroke="#E4E4E4" stroke-width="0.997417" stroke-dasharray="7.98 7.98"/>
<line x1="359.31" y1="167.029" x2="359.31" y2="553.018" stroke="#E4E4E4" stroke-width="0.997417" stroke-dasharray="7.98 7.98"/>
<line x1="359.31" y1="211.238" x2="359.31" y2="229.191" stroke="#B5B5B5" stroke-width="0.997417"/>
<line x1="367.789" y1="220.716" x2="349.835" y2="220.716" stroke="#B5B5B5" stroke-width="0.997417"/>
<line x1="229.647" y1="269.204" x2="229.647" y2="553.02" stroke="#E4E4E4" stroke-width="0.997417" stroke-dasharray="7.98 7.98"/>
<line x1="488.975" y1="83.8662" x2="488.975" y2="553.023" stroke="#E4E4E4" stroke-width="0.997417" stroke-dasharray="7.98 7.98"/>
<line x1="748.304" y1="83.8662" x2="748.304" y2="553.023" stroke="#E4E4E4" stroke-width="0.997417" stroke-dasharray="7.98 7.98"/>
<line x1="877.968" y1="167.029" x2="877.968" y2="553.018" stroke="#F1F2F4" stroke-width="0.997417" stroke-dasharray="7.98 7.98"/>
<line x1="1007.63" y1="269.204" x2="1007.63" y2="553.02" stroke="#F1F2F4" stroke-width="0.997417" stroke-dasharray="7.98 7.98"/>
<line x1="1033.14" y1="328.433" x2="203.143" y2="328.433" stroke="#E4E4E4" stroke-width="0.997417" stroke-dasharray="7.98 7.98"/>
<line x1="1083.38" y1="461.189" x2="152.9" y2="461.189" stroke="#F1F2F4" stroke-width="0.997417" stroke-dasharray="7.98 7.98"/>
<line x1="1046.37" y1="543.88" x2="189.909" y2="543.88" stroke="#E0E2E6" stroke-width="0.997417" stroke-dasharray="7.98 7.98"/>
<line x1="1007.63" y1="318.963" x2="1007.63" y2="336.916" stroke="#B5B5B5" stroke-width="0.997417"/>
<line x1="1016.11" y1="328.441" x2="998.158" y2="328.441" stroke="#B5B5B5" stroke-width="0.997417"/>
<line x1="359.311" y1="451.714" x2="359.311" y2="469.668" stroke="#B5B5B5" stroke-width="0.997417"/>
<line x1="367.789" y1="461.183" x2="349.835" y2="461.183" stroke="#B5B5B5" stroke-width="0.997417"/>
<defs>
<clipPath id="clip0_1357_16044">
<rect x="1" y="1" width="100" height="948" fill="white"/>
</clipPath>
<clipPath id="clip1_1357_16044">
<rect x="1137" y="1" width="99" height="948" fill="white"/>
</clipPath>
</defs>
</svg>
