<svg width="92" height="43" viewBox="0 0 92 43" fill="none" xmlns="http://www.w3.org/2000/svg">
<path d="M3.78519 32.3785V28.1769H9.95505C10.7626 28.1769 11.4944 28.0129 12.1505 27.6848C12.8066 27.3568 13.3239 26.89 13.7024 26.2843C14.0809 25.6535 14.2702 24.8964 14.2702 24.0132C14.2702 23.1552 14.0809 22.4108 13.7024 21.78C13.3239 21.1491 12.8066 20.6696 12.1505 20.3416C11.4944 20.0135 10.7626 19.8495 9.95505 19.8495H3.78519V15.6479H10.485C12.1757 15.6479 13.6898 15.9886 15.0272 16.6699C16.3899 17.3513 17.4623 18.3228 18.2446 19.5845C19.0269 20.821 19.418 22.2973 19.418 24.0132C19.418 25.7292 19.0269 27.218 18.2446 28.4797C17.4623 29.7162 16.3899 30.6751 15.0272 31.3565C13.6898 32.0378 12.1757 32.3785 10.485 32.3785H3.78519ZM0 42.2578V15.6479H5.14786V42.2578H0Z" fill="black"/>
<path d="M32.6742 42.6363C30.5797 42.6363 28.7123 42.1821 27.0721 41.2737C25.4571 40.34 24.1827 39.0656 23.249 37.4506C22.3154 35.8356 21.8485 34.0061 21.8485 31.9621V15.6479H26.9964V32.1135C26.9964 33.2995 27.2361 34.3215 27.7156 35.1795C28.2203 36.0375 28.9016 36.7062 29.7596 37.1857C30.6428 37.6399 31.6143 37.867 32.6742 37.867C33.7592 37.867 34.7182 37.6399 35.5509 37.1857C36.3836 36.7062 37.0397 36.0375 37.5192 35.1795C38.0239 34.3215 38.2762 33.3122 38.2762 32.1514V15.6479H43.4619V32C43.4619 34.044 42.9951 35.8735 42.0614 37.4885C41.1277 39.0783 39.8534 40.34 38.2384 41.2737C36.6486 42.1821 34.7939 42.6363 32.6742 42.6363Z" fill="black"/>
<path d="M54.7018 31.1294V27.1171H60.8717C62.1334 27.1171 63.105 26.8016 63.7863 26.1708C64.4929 25.5147 64.8462 24.6188 64.8462 23.4833C64.8462 22.4487 64.4929 21.5907 63.7863 20.9094C63.105 20.2028 62.1334 19.8495 60.8717 19.8495H54.7018V15.6479H61.3259C63.0419 15.6479 64.5433 15.9886 65.8303 16.6699C67.1425 17.326 68.1519 18.2345 68.8585 19.3953C69.5903 20.5561 69.9562 21.8935 69.9562 23.4076C69.9562 24.9721 69.5903 26.3348 68.8585 27.4956C68.1519 28.6311 67.1425 29.527 65.8303 30.1831C64.5181 30.8139 62.9914 31.1294 61.2502 31.1294H54.7018ZM50.9167 42.2578V15.6479H56.0645V42.2578H50.9167ZM65.4518 42.2578L56.6701 30.7509L61.4016 29.2746L71.6973 42.2578H65.4518Z" fill="black"/>
<path d="M73.4755 42.2578V15.6479H78.6234V42.2578H73.4755ZM77.2607 42.2578V37.7156H91.9851V42.2578H77.2607ZM77.2607 30.8644V26.4736H90.6602V30.8644H77.2607ZM77.2607 20.1902V15.6479H91.7958V20.1902H77.2607Z" fill="black"/>
<path d="M45.7244 2.45428C46.0514 1.59542 47.2664 1.59542 47.5935 2.45428L49.163 6.57616C49.2645 6.84277 49.4751 7.05333 49.7417 7.15485L53.8635 8.72437C54.7224 9.05141 54.7224 10.2664 53.8636 10.5935L49.7417 12.163C49.4751 12.2645 49.2645 12.4751 49.163 12.7417L47.5935 16.8635C47.2664 17.7224 46.0514 17.7224 45.7244 16.8636L44.1548 12.7417C44.0533 12.4751 43.8428 12.2645 43.5762 12.163L39.4543 10.5935C38.5954 10.2664 38.5954 9.05141 39.4543 8.72437L43.5762 7.15485C43.8428 7.05333 44.0533 6.84277 44.1548 6.57616L45.7244 2.45428Z" fill="#1E6EF1"/>
</svg>
