<svg width="17" height="15" viewBox="0 0 17 15" fill="none" xmlns="http://www.w3.org/2000/svg">
<path d="M15.9143 7.99522L9.91448 14.2949C9.78939 14.4262 9.61973 14.5 9.44283 14.5C9.26593 14.5 9.09627 14.4262 8.97118 14.2949C8.84609 14.1635 8.77581 13.9854 8.77581 13.7996C8.77581 13.6139 8.84609 13.4358 8.97118 13.3044L13.8335 8.19996H0.776447C0.599642 8.19996 0.430078 8.12622 0.305058 7.99495C0.180038 7.86368 0.109802 7.68564 0.109802 7.5C0.109802 7.31436 0.180038 7.13632 0.305058 7.00505C0.430078 6.87378 0.599642 6.80004 0.776447 6.80004H13.8335L8.97118 1.69557C8.84609 1.56423 8.77581 1.38609 8.77581 1.20035C8.77581 1.01461 8.84609 0.836469 8.97118 0.705128C9.09627 0.573787 9.26593 0.5 9.44283 0.5C9.61973 0.5 9.78939 0.573787 9.91448 0.705128L15.9143 7.00478C15.9763 7.06978 16.0254 7.14698 16.059 7.23196C16.0925 7.31693 16.1098 7.40801 16.1098 7.5C16.1098 7.59198 16.0925 7.68307 16.059 7.76804C16.0254 7.85302 15.9763 7.93021 15.9143 7.99522Z" fill="white"/>
</svg>
